HIERARCHY
ROOT Pelvis
{
	OFFSET 0.000000 0.941035 0.000000
	CHANNELS 6 Xposition Yposition Zposition Zrotation Yrotation Xrotation 
	JOINT L_Hip
	{
		OFFSET 0.057686 -0.087876 0.003035
		CHANNELS 3 Zrotation Yrotation Xrotation
		JOINT L_Knee
		{
			OFFSET 0.066837 -0.370709 0.088464
			CHANNELS 3 Zrotation Yrotation Xrotation
			JOINT L_Ankle
			{
				OFFSET -0.027322 -0.333445 -0.274811
				CHANNELS 3 Zrotation Yrotation Xrotation
				End Site #name: L_Foot
				{
					OFFSET 0.038237 -0.114310 0.054278
				}
			}
		}
	}
	JOINT R_Hip
	{
		OFFSET -0.065350 -0.088910 0.002498
		CHANNELS 3 Zrotation Yrotation Xrotation
		JOINT R_Knee
		{
			OFFSET -0.028454 -0.381047 0.044090
			CHANNELS 3 Zrotation Yrotation Xrotation
			JOINT R_Ankle
			{
				OFFSET 0.016163 -0.423846 -0.047572
				CHANNELS 3 Zrotation Yrotation Xrotation
				End Site #name: R_Foot
				{
					OFFSET -0.009622 -0.032750 0.134062
				}
			}
		}
	}
	JOINT Spine1
	{
		OFFSET -0.005279 0.118769 -0.056580
		CHANNELS 3 Zrotation Yrotation Xrotation
		JOINT Spine2
		{
			OFFSET -0.007634 0.144702 0.027905
			CHANNELS 3 Zrotation Yrotation Xrotation
			JOINT Spine3
			{
				OFFSET 0.000748 0.046230 0.005199
				CHANNELS 3 Zrotation Yrotation Xrotation
				JOINT Neck
				{
					OFFSET -0.000232 0.233968 -0.017512
					CHANNELS 3 Zrotation Yrotation Xrotation
					End Site #name: Head
					{
						OFFSET -0.006835 0.081713 0.051245
					}
				}
				JOINT L_Collar
				{
					OFFSET 0.071527 0.121607 -0.017895
					CHANNELS 3 Zrotation Yrotation Xrotation
					JOINT L_Shoulder
					{
						OFFSET 0.133001 -0.004043 -0.012321
						CHANNELS 3 Zrotation Yrotation Xrotation
						JOINT L_Elbow
						{
							OFFSET 0.052737 -0.250397 -0.063200
							CHANNELS 3 Zrotation Yrotation Xrotation
							End Site #name: L_Wrist
							{
								OFFSET 0.051457 -0.236165 0.110090
							}
						}
					}
				}
				JOINT R_Collar
				{
					OFFSET -0.081278 0.121064 -0.009232
					CHANNELS 3 Zrotation Yrotation Xrotation
					JOINT R_Shoulder
					{
						OFFSET -0.122592 -0.023311 -0.025134
						CHANNELS 3 Zrotation Yrotation Xrotation
						JOINT R_Elbow
						{
							OFFSET -0.013135 -0.257831 -0.078973
							CHANNELS 3 Zrotation Yrotation Xrotation
							End Site #name: R_Wrist
							{
								OFFSET -0.047187 -0.260179 0.065369
							}
						}
					}
				}
			}
		}
	}
}
MOTION
Frames: 7
Frame Time: 0.041667
0.018190 0.934448 1.746631 0.673844 0.653524 -2.421395 -2.428261 1.228964 9.049001 3.628256 -1.835413 -9.131388 -1.698208 -4.323218 -9.501533 0.167618 0.372028 -4.605854 -0.268971 0.158763 3.162783 1.465026 4.287100 3.749035 -1.136016 -0.065412 -4.544491 2.888810 -0.279360 -1.095896 -2.992090 0.123577 0.627705 -0.472660 0.448128 1.679600 -1.127974 5.166203 0.001758 2.556768 -0.389373 1.356237 1.296511 0.303516 -1.461628 0.406364 0.340770 -0.146895 -0.836759 0.165398 2.102624 0.273503 0.408383 -1.838437 
0.008779 0.934104 1.773094 0.165235 0.299137 -3.240024 -0.054655 0.721281 4.094150 1.558451 -1.398904 1.069326 -4.883966 -2.697291 -0.872502 0.998477 0.264111 -1.773883 0.612221 0.034524 3.144513 0.946551 3.107856 1.872797 -0.760440 -0.073864 -3.718758 3.162773 -0.294436 -1.393773 -3.176157 0.132449 0.570540 -1.225233 0.966587 1.980438 -1.297343 5.545659 -0.014245 1.687059 -0.022321 2.059870 1.446714 0.569800 -0.507831 -0.067023 1.136822 -0.203533 -0.816967 0.152468 2.250880 0.278540 0.552126 -2.604353 
0.001406 0.933275 1.796111 -0.040564 0.106528 -4.229504 1.658792 0.089569 -1.847718 -0.793730 -0.160721 10.668745 -3.138976 -0.334992 3.189329 1.374310 0.078093 0.933779 1.230825 -0.041485 3.532345 0.620690 2.565831 -0.054578 -0.779801 0.039897 -1.852928 3.652792 -0.311871 -2.050061 -3.296755 0.204658 0.674920 -1.285718 1.003831 1.958357 -1.889714 5.237516 -0.101711 1.088675 0.105149 1.887871 1.490050 0.599408 -0.461984 -0.325533 2.510078 -0.419867 -1.435726 0.367090 1.935500 0.279710 0.805185 -3.956825 
-0.004047 0.933434 1.816989 -0.005639 -0.076282 -4.974749 2.753568 -0.441207 -6.991826 -2.980968 1.832840 14.440745 -0.563001 1.157516 4.250631 1.336167 -0.138187 3.394561 1.631568 -0.093336 3.769046 0.363277 2.254759 -2.028351 -0.906793 0.144752 -0.495472 3.883746 -0.332558 -2.072955 -3.391101 0.267599 0.499255 -1.130201 0.893881 1.873272 -2.577218 4.959980 -0.198630 0.900348 0.038373 1.309770 1.622029 0.430226 -1.607081 -0.381895 3.897473 -0.681261 -2.192001 0.634815 1.196959 0.361028 1.119161 -5.493210 
-0.008073 0.934584 1.836520 0.251378 -0.179022 -5.479066 3.409955 -0.860284 -10.988263 -4.749180 3.725300 12.897082 1.642734 2.234957 4.712267 0.973033 -0.361466 5.717805 1.831814 -0.128346 3.504230 0.168896 2.029563 -3.635383 -1.110545 0.240173 0.411776 4.077353 -0.351450 -2.061058 -3.681677 0.296053 0.395734 -0.975523 0.777037 1.708114 -2.996248 4.716641 -0.256418 0.915447 -0.142956 0.434306 1.609365 0.038935 -3.490723 -0.413962 5.074068 -0.907784 -2.833876 0.865342 0.072863 0.574460 1.513653 -7.202171 
-0.011038 0.936095 1.855079 0.567238 -0.182373 -5.719409 3.898428 -1.123261 -13.801175 -6.180447 5.141221 7.595058 3.534152 3.207272 5.377528 0.527052 -0.551774 7.770147 1.984015 -0.160606 2.999716 0.028731 1.874441 -4.863369 -1.375062 0.337002 1.096075 4.357843 -0.366937 -2.263154 -4.084599 0.290118 0.423287 -0.871002 0.682747 1.432526 -3.158584 4.282414 -0.279368 1.092263 -0.421085 -0.730625 1.443859 -0.541009 -5.853653 -0.532700 5.954155 -1.063941 -3.323619 1.043603 -1.403507 0.919801 1.988716 -9.038727 
-0.013121 0.938118 1.873005 0.800762 -0.096906 -5.626631 4.328250 -1.180702 -15.238372 -7.301977 5.969939 -0.786932 5.521169 4.253078 6.321460 0.195071 -0.687061 9.354586 2.068400 -0.181095 2.559723 -0.065630 1.791776 -5.763889 -1.662846 0.426237 1.547542 4.713430 -0.389370 -2.446113 -4.465220 0.256537 0.385368 -0.829727 0.628316 1.140488 -3.162797 3.637499 -0.281855 1.415328 -0.780438 -2.163322 1.287299 -1.185926 -8.444235 -0.794378 6.563516 -1.147057 -3.640746 1.163507 -3.107821 1.499841 2.604681 -11.066719 
